<svg aria-hidden="true" version="1.1" xmlns="http://www.w3.org/2000/svg" xmlns:xlink="http://www.w3.org/1999/xlink">
  <defs>
    <symbol id="image" viewBox="0 0 489.4 489.4">
      <path fill="currentColor" d="M0 437.8c0 28.5 23.2 51.6 51.6 51.6h386.2c28.5 0 51.6-23.2 51.6-51.6V51.6c0-28.5-23.2-51.6-51.6-51.6H51.6C23.1 0 0 23.2 0 51.6v386.2zm437.8 27.1H51.6c-14.9 0-27.1-12.2-27.1-27.1v-64.5l92.8-92.8 79.3 79.3c4.8 4.8 12.5 4.8 17.3 0l143.2-143.2 107.8 107.8v113.4c0 14.9-12.2 27.1-27.1 27.1zM51.6 24.5h386.2c14.9 0 27.1 12.2 27.1 27.1v238.1l-99.2-99.1c-4.8-4.8-12.5-4.8-17.3 0L205.2 333.8l-79.3-79.3c-4.8-4.8-12.5-4.8-17.3 0l-84.1 84.1v-287c0-14.9 12.2-27.1 27.1-27.1z"/>
      <path fill="currentColor" d="M151.7 196.1c34.4 0 62.3-28 62.3-62.3s-28-62.3-62.3-62.3-62.3 28-62.3 62.3 27.9 62.3 62.3 62.3zm0-100.1c20.9 0 37.8 17 37.8 37.8s-17 37.8-37.8 37.8-37.8-17-37.8-37.8S130.8 96 151.7 96z"/>
    </symbol>

    <symbol id="free" viewBox="0 0 512 512">
      <path d="M483.976 348.464l-89.843-89.844c-31.126-31.125-79.137-36.841-116.513-14.691l-9.548-9.549c22.151-37.377 16.434-85.389-14.691-116.513l-89.844-89.843C145.464 9.953 121.401.001 95.78.001c-25.621 0-49.685 9.953-67.756 28.025C9.953 46.097 0 70.159 0 95.78c0 25.621 9.952 49.685 28.023 67.756l89.843 89.842c18.072 18.072 42.136 28.024 67.757 28.024 17.309 0 34.032-4.593 48.766-13.323l9.54 9.54c-22.15 37.377-16.433 85.389 14.692 116.512l89.842 89.843c18.072 18.072 42.135 28.024 67.756 28.024 25.621 0 49.685-9.953 67.756-28.024C502.046 465.903 512 441.841 512 416.219c0-25.62-9.954-49.684-28.024-67.755zM185.624 265.52c-21.38.002-41.455-8.299-56.527-23.371l-89.842-89.843c-31.169-31.169-31.169-81.883 0-113.051 31.166-31.169 81.884-31.169 113.05 0l89.844 89.842c24.983 24.982 30.345 63.005 14.259 93.619l-11.912-11.912c10.115-23.768 4.914-51.985-13.576-70.477l-89.844-89.843c-24.977-24.975-65.615-24.977-90.593 0-24.975 24.976-24.975 65.615 0 90.592l89.843 89.842c12.248 12.248 28.766 18.67 45.431 18.67 8.495 0 17.028-1.67 25.054-5.085l11.908 11.908c-11.385 5.977-24.038 9.109-37.095 9.109zm-49.789-95.993l62.518 62.518c-16.398 4.437-34.472-.033-46.795-12.356l-89.843-89.843c-18.783-18.783-18.783-49.347 0-68.131 18.783-18.783 49.347-18.783 68.13 0l89.844 89.842c12.323 12.326 16.794 30.399 12.355 46.797l-62.518-62.518c-9.29-9.289-24.402-9.288-33.69 0a23.666 23.666 0 0 0-6.979 16.846 23.677 23.677 0 0 0 6.978 16.845zm105.277 82.816L218.06 229.29l-.068-.068-.021-.021-70.906-70.905a7.89 7.89 0 0 1-2.325-5.615c0-2.121.826-4.115 2.326-5.615 3.096-3.096 8.134-3.096 11.229 0l70.903 70.903.031.031.06.06 23.052 23.052 18.543 18.544.011.01.109.109.003.003 22.923 22.921.01.011.058.058.035.035 55.928 55.928a7.89 7.89 0 0 1 2.325 5.615 7.889 7.889 0 0 1-2.326 5.615c-1.499 1.5-3.494 2.326-5.615 2.326s-4.116-.826-5.615-2.326l-55.927-55.928-.035-.035-.058-.058-.011-.01-22.921-22.92-.007-.007-.105-.105-.01-.011-18.544-18.544zM361.191 327.5l-47.546-47.546c16.398-4.44 34.472.032 46.796 12.356l89.843 89.844c18.783 18.783 18.783 49.347 0 68.131-18.783 18.783-49.346 18.783-68.13 0l-89.843-89.843c-12.325-12.326-16.796-30.398-12.356-46.797l47.545 47.546a23.667 23.667 0 0 0 16.846 6.978 23.664 23.664 0 0 0 16.845-6.978c4.5-4.5 6.979-10.482 6.979-16.846a23.678 23.678 0 0 0-6.979-16.845zm111.554 145.245c-15.071 15.072-35.146 23.373-56.526 23.373s-41.453-8.301-56.525-23.373l-89.843-89.842c-24.983-24.983-30.346-63.006-14.259-93.62l11.913 11.913c-10.117 23.767-4.916 51.986 13.576 70.477l89.842 89.843c12.489 12.488 28.892 18.732 45.296 18.732s32.807-6.244 45.296-18.732c24.975-24.976 24.975-65.615 0-90.592l-89.843-89.844c-18.492-18.491-46.71-23.693-70.478-13.576l-11.913-11.912c30.614-16.086 68.637-10.724 93.62 14.258l89.843 89.843c15.072 15.072 23.373 35.146 23.373 56.525s-8.3 41.455-23.372 56.527zM391.509 116.257a7.942 7.942 0 0 0-11.231 0l-44.47 44.47a7.941 7.941 0 1 0 11.231 11.23l44.47-44.47a7.941 7.941 0 0 0 0-11.23zM307.541 81.476a7.94 7.94 0 0 0-7.941 7.941v62.89a7.94 7.94 0 0 0 7.941 7.941 7.94 7.94 0 0 0 7.941-7.941v-62.89a7.94 7.94 0 0 0-7.941-7.941zM418.347 192.282h-62.89a7.94 7.94 0 0 0-7.941 7.941 7.94 7.94 0 0 0 7.941 7.941h62.89a7.94 7.94 0 0 0 7.941-7.941 7.94 7.94 0 0 0-7.941-7.941z"/>
    </symbol>

    <symbol id="quill" viewBox="0 0 512 512">
      <path d="M422.374 89.625a7.604 7.604 0 0 0-10.754-.001L177.54 323.705a7.602 7.602 0 0 0 5.377 12.98 7.58 7.58 0 0 0 5.377-2.227l234.081-234.08a7.603 7.603 0 0 0-.001-10.753z"/>
      <path d="M510.167 69.929c-5.818-34.913-33.183-62.279-68.096-68.097-24.685-4.112-50.586-1.289-76.984 8.396a186.013 186.013 0 0 0-19.531 8.476 7.57 7.57 0 0 0-.806.414c-41.531 21.14-74.741 57.505-92.811 102.43a207.472 207.472 0 0 0-1.481 3.783 238.456 238.456 0 0 1-1.581-16.355c-.148-2.429-1.316-4.741-3.34-6.092a7.612 7.612 0 0 0-9.72 1.003c-13.968 14.38-26.368 28.747-37.433 43.008a7.5 7.5 0 0 0-.715.926c-57.393 74.323-78.475 145.634-94.574 200.113-11.77 39.828-21.067 71.288-39.624 89.845l-.003.003-61.241 61.236a7.602 7.602 0 0 0 5.377 12.98 7.58 7.58 0 0 0 5.377-2.227l61.249-61.25c18.558-18.551 50.015-27.848 89.84-39.616 39.913-11.795 89.572-26.471 142.089-56.032 2.463-1.386 4.136-3.964 4.119-6.79a7.605 7.605 0 0 0-5.957-7.397c-10.39-2.307-19.252-4.904-26.61-7.438 7.286-1.077 15.718-2.714 25.23-5.171 55.311-14.287 104.626-45.381 142.615-89.922a646.811 646.811 0 0 0 12.902-15.622 361.024 361.024 0 0 0 10.378-13.614c2.453-3.386 1.988-8.226-1.331-10.768a7.604 7.604 0 0 0-10.793 1.58 340.918 340.918 0 0 1-10.131 13.303 82.742 82.742 0 0 1-28.713 22.87c-54.925 26.421-101.04 33.527-101.55 33.602a7.604 7.604 0 0 0 2.228 15.044c1.892-.28 37.651-5.755 84.415-25.269-30.261 25.731-65.526 44.179-103.825 54.071-33.295 8.6-51.993 6.346-52.148 6.326a7.604 7.604 0 0 0-5.298 13.827c.652.443 13.676 9.137 40.265 17.087-44.882 22.88-87.328 35.424-122.198 45.729-16.749 4.95-32.088 9.485-45.832 14.505l50.035-50.035a7.603 7.603 0 0 0-.168-10.916c-3.031-2.854-7.868-2.555-10.812.389l-49.809 49.809c5.02-13.743 9.554-29.081 14.503-45.83 9.759-33.02 20.818-70.445 40.126-110.868a470.478 470.478 0 0 1 17.349-32.898c-8.457 27.568-12.777 50.315-12.834 67.731-.012 3.92 2.775 7.426 6.666 7.89a7.607 7.607 0 0 0 8.541-7.548c0-25.216 10.401-60.094 19.602-86.01 8.338-23.489 21.118-45.182 37.894-63.616l.262-.287c2.418 18.945 6.19 32.613 6.392 33.339a7.612 7.612 0 0 0 7.675 5.552 7.606 7.606 0 0 0 7.131-6.235c1.825-10.038 5.043-20.827 9.565-32.068 10.442-25.961 26.343-48.814 46.15-67.064-13.456 22.489-20.563 45.001-20.615 65.61-.01 3.877 2.823 7.318 6.672 7.775a7.607 7.607 0 0 0 8.536-7.548c0-32.288 20.023-62.797 33.955-80.116 7.725-9.602 17.838-17.052 29.402-21.31l.176-.065c23.893-8.766 47.192-11.347 69.246-7.672 28.503 4.75 50.845 27.092 55.595 55.595 5.349 32.101-2.563 66.573-23.518 102.459a7.608 7.608 0 0 0 3.705 10.882c3.542 1.462 7.601-.079 9.53-3.389 22.723-38.975 31.229-76.808 25.29-112.453z"/>
    </symbol>

    <symbol id="settings" viewBox="0 0 480.3 480.3">
      <path d="M254.15 234.1V13.5c0-7.5-6-13.5-13.5-13.5s-13.5 6-13.5 13.5v220.6c-31.3 6.3-55 34-55 67.2s23.7 60.9 55 67.2v98.2c0 7.5 6 13.5 13.5 13.5s13.5-6 13.5-13.5v-98.2c31.3-6.3 55-34 55-67.2 0-33.1-23.6-60.9-55-67.2zm-13.5 108.7c-22.9 0-41.5-18.6-41.5-41.5s18.6-41.5 41.5-41.5 41.5 18.6 41.5 41.5-18.6 41.5-41.5 41.5zM88.85 120.9V13.5c0-7.5-6-13.5-13.5-13.5s-13.5 6-13.5 13.5v107.4c-31.3 6.3-55 34-55 67.2s23.7 60.9 55 67.2v211.4c0 7.5 6 13.5 13.5 13.5s13.5-6 13.5-13.5V255.2c31.3-6.3 55-34 55-67.2s-23.7-60.8-55-67.1zm-13.5 108.7c-22.9 0-41.5-18.6-41.5-41.5s18.6-41.5 41.5-41.5 41.5 18.6 41.5 41.5-18.7 41.5-41.5 41.5zM418.45 120.9V13.5c0-7.5-6-13.5-13.5-13.5s-13.5 6-13.5 13.5v107.4c-31.3 6.3-55 34-55 67.2s23.7 60.9 55 67.2v211.5c0 7.5 6 13.5 13.5 13.5s13.5-6 13.5-13.5V255.2c31.3-6.3 55-34 55-67.2s-23.6-60.8-55-67.1zm-13.5 108.7c-22.9 0-41.5-18.6-41.5-41.5s18.6-41.5 41.5-41.5 41.5 18.6 41.5 41.5-18.6 41.5-41.5 41.5z"/>
    </symbol>

    <symbol id="browser" viewBox="0 0 470 470">
      <path fill="000" d="M462.5 22.5H7.5A7.5 7.5 0 0 0 0 30v410a7.5 7.5 0 0 0 7.5 7.5h455a7.5 7.5 0 0 0 7.5-7.5v-80c0-4.143-3.358-7.5-7.5-7.5s-7.5 3.357-7.5 7.5v72.5H15v-335h440V330c0 4.143 3.358 7.5 7.5 7.5s7.5-3.357 7.5-7.5V30a7.5 7.5 0 0 0-7.5-7.5zM15 37.5h277.5v45H15v-45zm292.5 45v-45H455v45H307.5z"/>
      <path fill="000" d="M381.5 52c-4.411 0-8 3.589-8 8s3.589 8 8 8 8-3.589 8-8-3.589-8-8-8zM340.5 52c-4.411 0-8 3.589-8 8s3.589 8 8 8 8-3.589 8-8-3.589-8-8-8zM422.5 52c-4.411 0-8 3.589-8 8s3.589 8 8 8 8-3.589 8-8-3.589-8-8-8zM148.714 225.989a7.498 7.498 0 0 0 6.254-5.29l17.253-57.594a7.5 7.5 0 0 0-14.369-4.305l-12.374 41.306-11.928-19.908a7.499 7.499 0 0 0-12.868 0l-11.928 19.908-12.372-41.298a7.5 7.5 0 0 0-9.337-5.032 7.5 7.5 0 0 0-5.032 9.337l17.251 57.586a7.5 7.5 0 0 0 13.618 1.702l14.233-23.756 14.233 23.756a7.504 7.504 0 0 0 7.366 3.588zM206.358 225.982a7.5 7.5 0 0 0 7.364-3.588l14.233-23.756 14.233 23.756a7.5 7.5 0 0 0 13.618-1.702l17.253-57.594a7.5 7.5 0 0 0-14.369-4.305L246.316 200.1l-11.928-19.908a7.499 7.499 0 0 0-12.868 0L209.594 200.1l-12.372-41.299a7.498 7.498 0 0 0-9.337-5.032 7.5 7.5 0 0 0-5.032 9.337l17.251 57.587a7.501 7.501 0 0 0 6.254 5.289zM368.865 153.755a7.501 7.501 0 0 0-9.337 5.032l-12.374 41.305-11.928-19.908a7.499 7.499 0 0 0-12.868 0l-11.928 19.908-12.372-41.298a7.5 7.5 0 0 0-14.369 4.305l17.251 57.586a7.5 7.5 0 0 0 13.618 1.702l14.233-23.756 14.233 23.756a7.502 7.502 0 0 0 7.364 3.588 7.498 7.498 0 0 0 6.254-5.29l17.253-57.593a7.497 7.497 0 0 0-5.03-9.337zM136.7 268.547a7.5 7.5 0 0 0-7.5-7.5h-40a7.5 7.5 0 0 0-7.5 7.5v40a7.5 7.5 0 0 0 7.5 7.5h40a7.5 7.5 0 0 0 7.5-7.5v-40zm-15 32.5h-25v-25h25v25zM129.2 331.047h-40a7.5 7.5 0 0 0-7.5 7.5v40a7.5 7.5 0 0 0 7.5 7.5h40a7.5 7.5 0 0 0 7.5-7.5v-40a7.5 7.5 0 0 0-7.5-7.5zm-7.5 40h-25v-25h25v25zM366.712 281.047h-30c-4.142 0-7.5 3.357-7.5 7.5s3.358 7.5 7.5 7.5h30c4.142 0 7.5-3.357 7.5-7.5s-3.358-7.5-7.5-7.5zM306.712 281.047H159.2c-4.142 0-7.5 3.357-7.5 7.5s3.358 7.5 7.5 7.5h147.513a7.5 7.5 0 1 0-.001-15zM366.712 351.047h-30c-4.142 0-7.5 3.357-7.5 7.5s3.358 7.5 7.5 7.5h30c4.142 0 7.5-3.357 7.5-7.5s-3.358-7.5-7.5-7.5zM306.712 351.047H159.2c-4.142 0-7.5 3.357-7.5 7.5s3.358 7.5 7.5 7.5h147.513a7.5 7.5 0 1 0-.001-15z"/>
    </symbol>

    <symbol id="easy" viewBox="0 0 474.199 474.199">
      <path d="M471.952 187.434c-5.925-14.918-22.822-22.208-37.74-16.283-.767.305-1.522.642-2.26 1.011L410.4 182.954l-44-58.656a8.005 8.005 0 0 0-1.96-1.856l-48-32a7.995 7.995 0 0 0-3.2-1.248l-104-16a8.001 8.001 0 0 0-6.864 2.24l-59.64 59.416c-10.016 9.979-10.047 26.188-.068 36.204l.068.068c9.553 9.489 24.811 9.992 34.968 1.152l48.328-42.288 42.88 12.256-35.888 78.856-55.056 78.648-65.44 58.888c-11.918 10.237-13.281 28.198-3.044 40.116s28.198 13.281 40.116 3.044l72.096-59.04 43.096-43.096 54.656 41-12.16 84.864a27.631 27.631 0 0 0 6.48 22.032 27.93 27.93 0 0 0 21.432 9.544c13.583.019 25.257-9.632 27.792-22.976l20.912-111.552a8 8 0 0 0-2.592-7.488l-59.92-52.384 25.504-70.128 47.088 53.816a8 8 0 0 0 9.248 2.048l54.016-23.888c14.201-6.291 20.743-22.801 14.704-37.112zm-21.176 22.464l-48.632 21.504-52.128-59.576a8 8 0 0 0-13.536 2.536l-32 88a8 8 0 0 0 2.248 8.752l60.568 53L347.2 431.178a12.384 12.384 0 0 1-12.536 9.92c-6.442-.002-11.663-5.225-11.661-11.667 0-.55.039-1.1.117-1.645l12.8-89.552a7.999 7.999 0 0 0-3.12-7.536l-64-48a8 8 0 0 0-10.456.744l-47.408 47.464-71.504 58.504c-5.287 4.381-13.124 3.646-17.505-1.641-4.273-5.157-3.693-12.773 1.313-17.223l66.112-59.504a7.766 7.766 0 0 0 1.2-1.36l56-80c.283-.4.526-.826.728-1.272l40-88a8 8 0 0 0-5.08-11l-56-16a7.952 7.952 0 0 0-7.472 1.672l-51.6 45.152c-3.879 3.625-9.963 3.419-13.588-.46s-3.419-9.963.46-13.588l56.8-56.568 98.248 15.12 45.352 30.256 47.2 62.904a8 8 0 0 0 9.976 2.36l27.528-13.8a12.92 12.92 0 0 1 10.4-.536 13.439 13.439 0 0 1 7.768 8c2.49 6.206-.382 13.269-6.496 15.976zM48 65.098h104v16H48zM16 65.098h16v16H16zM80 129.098h16v16H80zM0 129.098h64v16H0zM40 193.098h80v16H40z"/>
      <path d="M16 257.098h136v16H16zM32 321.098h64v16H32zM0 321.098h16v16H0zM16 385.098h56v16H16zM400 17.098h-36c-24.301 0-44 19.699-44 44s19.699 44 44 44 44-19.699 44-44v-36a8 8 0 0 0-8-8zm-8 44c.06 15.402-12.376 27.937-27.778 27.997a27.89 27.89 0 0 1-22.11-10.749A73.297 73.297 0 0 1 392 57.194v3.904zm0-19.904a89.15 89.15 0 0 0-55.888 21.016c0-.376-.112-.728-.112-1.112 0-15.464 12.536-28 28-28h28v8.096z"/>
    </symbol>

    <symbol id="open-source" viewBox="0 0 512.002 512.002">
      <path d="M109.834 496.21l-15.055-21.206c-3.196-4.504-9.439-5.563-13.943-2.366-4.503 3.197-5.563 9.439-2.365 13.943l15.055 21.207a9.986 9.986 0 0 0 8.163 4.212c2.002 0 4.023-.6 5.78-1.847 4.503-3.197 5.563-9.439 2.365-13.943zM225.206 499.946l-16.384-78.088c-7.967-37.972-30.087-70.806-62.283-92.455l-34.981-23.522c-14.027-9.43-32.881-7.402-44.605 4.553V189.938c0-15.816-10.783-29.254-26.223-32.681-9.965-2.214-20.243.184-28.204 6.571-7.96 6.387-12.525 15.904-12.525 26.11V344.99c0 20.313 6.216 39.806 17.975 56.371l17.833 25.121a9.986 9.986 0 0 0 8.163 4.212c2.002 0 4.023-.6 5.78-1.847 4.503-3.197 5.563-9.439 2.365-13.943l-17.833-25.121c-9.344-13.163-14.283-28.652-14.283-44.794V189.938c0-4.108 1.838-7.939 5.042-10.511a13.408 13.408 0 0 1 11.354-2.645c6.215 1.379 10.556 6.789 10.556 13.156v123.016c0 17.414 6.398 34.005 18.021 46.913.498.597 1.01 1.188 1.551 1.761 6.641 7.037 14.449 15.329 21.803 23.145l10.295 10.957c.033.035.069.065.103.099 8.807 9.367 15.302 16.284 15.438 16.428 3.779 4.025 10.109 4.225 14.135.444s4.225-10.109.443-14.135c-.182-.194-11.888-12.659-25.256-26.868l-22.929-24.403c-.058-.062-.111-.127-.169-.189-5.376-6.43-5.309-15.753.326-22.115 4.985-5.626 13.449-6.706 19.686-2.513L135.379 346c27.848 18.725 46.979 47.123 53.869 79.965l16.385 78.089c.989 4.713 5.146 7.948 9.777 7.948.68 0 1.371-.07 2.063-.215 5.405-1.134 8.867-6.436 7.733-11.841z"/>
      <path d="M74.089 445.858l-.064-.09c-3.21-4.496-9.454-5.54-13.949-2.332s-5.539 9.453-2.332 13.948l.064.09a9.989 9.989 0 0 0 8.149 4.193c2.01 0 4.039-.604 5.8-1.861 4.494-3.208 5.539-9.453 2.332-13.948zM499.475 163.829c-7.96-6.387-18.243-8.781-28.203-6.571-15.44 3.426-26.224 16.865-26.224 32.681v120.496c-11.723-11.955-30.579-13.983-44.605-4.553l-34.981 23.521c-32.197 21.648-54.316 54.483-62.283 92.455l-16.384 78.089c-1.134 5.405 2.328 10.706 7.733 11.84.692.145 1.384.215 2.063.215 4.632 0 8.788-3.236 9.777-7.949l16.384-78.089c6.891-32.841 26.021-61.24 53.869-79.964l34.981-23.521c6.235-4.194 14.699-3.114 19.686 2.512 5.628 6.354 5.703 15.662.347 22.092-.064.07-.125.142-.189.212l-48.186 51.271c-3.781 4.026-3.582 10.354.443 14.135 4.026 3.781 10.354 3.582 14.135-.444.136-.144 40.998-43.591 47.639-50.628a38.145 38.145 0 0 0 1.551-1.761c11.622-12.908 18.021-29.499 18.021-46.913V189.938c0-6.367 4.341-11.777 10.557-13.156 4.013-.89 8.149.075 11.354 2.645a13.413 13.413 0 0 1 5.042 10.511V344.99c0 16.142-4.939 31.631-14.283 44.794l-75.551 106.427c-3.197 4.503-2.138 10.746 2.365 13.943a9.958 9.958 0 0 0 5.78 1.847 9.99 9.99 0 0 0 8.163-4.212l75.551-106.427c11.759-16.565 17.975-36.058 17.975-56.371V189.938c-.003-10.206-4.567-19.722-12.527-26.109z"/>
      <path d="M382.658 191.66l-17.791-4.25v-3.19c11.563-8.1 19.145-21.513 19.145-36.671V124.42c0-24.679-20.077-44.756-44.756-44.756-11.075 0-21.215 4.052-29.038 10.74C301.508 69.074 280.55 54 256.126 54c-24.454 0-45.434 15.113-54.124 36.484-7.835-6.736-18.012-10.822-29.132-10.822-24.679 0-44.756 20.077-44.756 44.756V147.547c0 15.158 7.582 28.571 19.145 36.671v3.19l-17.791 4.25c-21.242 5.075-36.078 23.872-36.078 45.712v18.676c0 5.523 4.478 10 10 10h45.952a62.577 62.577 0 0 0-.12 3.661v35.958c0 5.523 4.478 10 10 10h60.11c5.522 0 10-4.477 10-10s-4.478-10-10-10H209V275c0-5.523-4.478-10-10-10s-10 4.477-10 10v20.667h-19.777v-25.958c0-19.287 13.1-35.896 31.854-40.39l27.442-6.576 18.365 41.782a10 10 0 0 0 9.153 5.976h.001a10 10 0 0 0 9.154-5.975l18.346-41.72 27.355 6.535c18.772 4.485 31.883 21.096 31.883 40.397v25.929h-19.777V275c0-5.523-4.478-10-10-10s-10 4.477-10 10v20.667h-11.333c-5.522 0-10 4.477-10 10s4.478 10 10 10h61.111c5.522 0 10-4.477 10-10v-35.929c0-1.239-.05-2.467-.122-3.69h46.082c5.522 0 10-4.477 10-10v-18.676c0-21.84-14.836-40.638-36.079-45.712zm-43.402-91.998c13.102 0 23.858 10.231 24.702 23.123h-13.903a72.889 72.889 0 0 1-33.529-8.172c3.803-8.788 12.561-14.951 22.73-14.951zM314.5 146.087c.012-.487.037-.972.037-1.462v-8.906a92.891 92.891 0 0 0 35.518 7.066h13.957v4.763c0 13.65-11.105 24.756-24.756 24.756S314.5 161.198 314.5 147.547v-1.46zm-96.784-33.677c0-21.179 17.23-38.41 38.41-38.41 19.103 0 34.992 14.018 37.926 32.306l-16.835-9.891a9.998 9.998 0 0 0-12.73 2.2 43.084 43.084 0 0 1-33.102 15.449h-13.669v-1.654zm-44.845-12.748c10.169 0 18.926 6.164 22.73 14.95a72.892 72.892 0 0 1-33.529 8.172h-13.903c.844-12.891 11.601-23.122 24.702-23.122zm-24.756 43.122h13.957a92.895 92.895 0 0 0 35.555-7.081v11.843c0 13.65-11.105 24.756-24.756 24.756s-24.756-11.104-24.756-24.755v-4.763zm48.302 67.085c-19.674 4.714-35.136 18.431-42.495 36.178H113.39v-8.676a26.911 26.911 0 0 1 20.725-26.26l25.468-6.084a10 10 0 0 0 7.677-9.726v-3.362c1.84.231 3.71.364 5.611.364 1.887 0 3.744-.131 5.57-.359v2.853a9.992 9.992 0 0 0 4.562 8.858 9.951 9.951 0 0 0 3.553 1.428l14.917 3.574-5.056 1.212zm27.894-15.524a46.92 46.92 0 0 0-8.007-2.7l-17.864-4.281v-3.116a45.122 45.122 0 0 0 8.667-7.918 58.871 58.871 0 0 0 17.204 17.244v.771zm43.432 14.693l-11.702 26.615-11.729-26.683v-7.136a58.455 58.455 0 0 0 11.814 1.202 58.45 58.45 0 0 0 11.617-1.164v7.166zm-11.617-26.003c-21.18.001-38.41-17.23-38.41-38.41v-10.562h13.669c15.858 0 30.936-5.897 42.492-16.415l20.622 12.116v16.324c-.772 20.503-17.683 36.947-38.373 36.947zm31.617 11.342v-.677a58.851 58.851 0 0 0 17.347-17.286 45.113 45.113 0 0 0 8.594 7.834v3.116l-17.865 4.281a47.089 47.089 0 0 0-8.076 2.732zm110.993 51.67h-40.67c-7.366-17.747-22.839-31.456-42.525-36.159l-5.021-1.199 14.997-3.594a9.987 9.987 0 0 0 3.605-1.44 9.991 9.991 0 0 0 4.562-8.643v-3.068c1.827.228 3.683.359 5.57.359a44.99 44.99 0 0 0 5.611-.364v3.362a10 10 0 0 0 7.677 9.726l25.468 6.084a26.913 26.913 0 0 1 20.726 26.26v8.676z"/>
      <path d="M263.069 298.59a10.08 10.08 0 0 0-7.069-2.92c-2.641 0-5.21 1.06-7.07 2.92a10.056 10.056 0 0 0-2.93 7.08c0 2.63 1.06 5.2 2.93 7.07 1.86 1.86 4.43 2.93 7.07 2.93 2.63 0 5.2-1.07 7.069-2.93a10.094 10.094 0 0 0 2.931-7.07c0-2.64-1.07-5.21-2.931-7.08zM255.993 0c-5.522 0-10 4.477-10 10v14.963c0 5.523 4.478 10 10 10s10-4.477 10-10V10c0-5.523-4.477-10-10-10zM219.157 32.619l-10.49-10.48c-3.907-3.904-10.238-3.901-14.142.006-3.904 3.907-3.9 10.239.007 14.142l10.491 10.48a9.966 9.966 0 0 0 7.067 2.926 9.97 9.97 0 0 0 7.074-2.932c3.902-3.907 3.9-10.239-.007-14.142zM317.222 22.395c-3.907-3.903-10.24-3.901-14.142.007l-10.409 10.419c-3.903 3.907-3.9 10.239.007 14.142a9.968 9.968 0 0 0 7.068 2.926 9.966 9.966 0 0 0 7.074-2.933l10.409-10.419c3.903-3.907 3.9-10.239-.007-14.142z"/>
    </symbol>
  </defs>
</svg>
